<svg id="Layer_1" data-name="Layer 1" xmlns="http://www.w3.org/2000/svg" viewBox="0 0 46.43 7.31"><defs><style>.cls-1{fill:#001a33;}.cls-2{fill:#fbba36;}.cls-3{fill:#71bf4c;}.cls-4{fill:#5cc8da;}.cls-5{fill:#1d8ece;}.cls-6{fill:#6859a6;}.cls-7{fill:#e94c89;}</style></defs><path class="cls-1" d="M4.68,1.57A2,2,0,0,0,4,.86,1.91,1.91,0,0,0,3,.6H.38V6.89H1.55V4.6H3a1.75,1.75,0,0,0,1-.28,2.19,2.19,0,0,0,.7-.72,2.07,2.07,0,0,0,.26-1A2,2,0,0,0,4.68,1.57ZM2.5,4A1.3,1.3,0,0,1,1.18,2.6a1.32,1.32,0,0,1,.37-.92,1.35,1.35,0,0,1,1-.43h0a1.33,1.33,0,0,1,1,.41,1.31,1.31,0,0,1,.4,1A1.34,1.34,0,0,1,2.5,4Z"/><path class="cls-1" d="M10.2,3.26a2.19,2.19,0,0,0-.88-.88,2.51,2.51,0,0,0-1.26-.32,2.55,2.55,0,0,0-1.27.32,2.26,2.26,0,0,0-.88.88,2.4,2.4,0,0,0-.32,1.25,2.44,2.44,0,0,0,.32,1.28,2.4,2.4,0,0,0,.88.88A2.55,2.55,0,0,0,8.06,7a2.51,2.51,0,0,0,1.26-.32,2.32,2.32,0,0,0,.88-.88,2.53,2.53,0,0,0,.32-1.28A2.5,2.5,0,0,0,10.2,3.26ZM8,5.93A1.35,1.35,0,0,1,6.66,4.52,1.38,1.38,0,0,1,8,3.13h0a1.34,1.34,0,0,1,1,.43A1.38,1.38,0,0,1,8,5.93Z"/><path class="cls-2" d="M9.06,4.54a1,1,0,0,1-1,1H8a1,1,0,0,1-1-1,1,1,0,0,1,1-1h0A1,1,0,0,1,9.06,4.54Z"/><rect class="cls-1" x="11.52" y="0.23" width="1.12" height="6.66"/><polygon class="cls-1" points="18.49 2.15 17.01 2.15 15.05 4.12 15.05 0.23 13.94 0.23 13.94 6.89 15.05 6.89 15.05 5.37 15.52 4.93 17.14 6.89 18.51 6.89 16.28 4.22 18.49 2.15"/><path class="cls-1" d="M22.42,2.16v.67a2.38,2.38,0,0,0-.34-.38,1.55,1.55,0,0,0-.52-.29,1.76,1.76,0,0,0-.66-.1,2,2,0,0,0-1.11.31,2.19,2.19,0,0,0-.79.88,2.72,2.72,0,0,0-.28,1.26A2.66,2.66,0,0,0,19,5.77a2.35,2.35,0,0,0,.77.9A1.89,1.89,0,0,0,20.83,7a2,2,0,0,0,.65-.11A2.3,2.3,0,0,0,22,6.6a1.61,1.61,0,0,0,.39-.39v.68h1.12V2.16ZM21,5.92a1.37,1.37,0,0,1-.54-.11h0a1.33,1.33,0,0,1-.81-1.3A1.37,1.37,0,0,1,21,3.12h0a1.37,1.37,0,0,1,1,.42,1.43,1.43,0,0,1,.42,1A1.4,1.4,0,0,1,21,5.92Z"/><path class="cls-1" d="M28.22.24V2.73A1.77,1.77,0,0,0,28,2.45a2.16,2.16,0,0,0-.57-.28,1.64,1.64,0,0,0-.66-.11,2.07,2.07,0,0,0-1.13.32,2.12,2.12,0,0,0-.79.88,2.71,2.71,0,0,0-.29,1.25A2.79,2.79,0,0,0,24.8,5.8a2.31,2.31,0,0,0,.8.87A2.07,2.07,0,0,0,26.73,7a2,2,0,0,0,.63-.11,1.66,1.66,0,0,0,.55-.27,1.76,1.76,0,0,0,.33-.34l0,.62h1.07V.24ZM26.76,5.92a1.33,1.33,0,0,1-.57-.13v0h0a1.28,1.28,0,0,1-.76-1.25,1.35,1.35,0,0,1,.79-1.25h0a1.41,1.41,0,0,1,.54-.11h0a1.37,1.37,0,0,1,1,.42,1.43,1.43,0,0,1,.42,1A1.4,1.4,0,0,1,26.76,5.92Z"/><path class="cls-1" d="M34.89,3.26A2.17,2.17,0,0,0,34,2.38a2.56,2.56,0,0,0-1.26-.32,2.52,2.52,0,0,0-1.27.32,2.19,2.19,0,0,0-.88.88,2.41,2.41,0,0,0-.33,1.25,2.44,2.44,0,0,0,.33,1.28,2.32,2.32,0,0,0,.88.88A2.52,2.52,0,0,0,32.76,7,2.56,2.56,0,0,0,34,6.67a2.3,2.3,0,0,0,.87-.88,2.44,2.44,0,0,0,.32-1.28A2.4,2.4,0,0,0,34.89,3.26ZM34,5.2l0,0v0a.87.87,0,0,1-.11.18h0a1.43,1.43,0,0,1-1.09.49,1.33,1.33,0,0,1-.77-.24.55.55,0,0,1-.17-.13,1.35,1.35,0,0,1-.42-1,1.46,1.46,0,0,1,.23-.78,1.38,1.38,0,0,1,1.14-.63h0a1.42,1.42,0,0,1,1,.43A1.19,1.19,0,0,1,34,4s0,0,0,0h0a.06.06,0,0,1,0,0,.12.12,0,0,1,0,.07,1,1,0,0,1,.1.44A1.26,1.26,0,0,1,34,5.2Z"/><polygon class="cls-1" points="37.83 0.94 36.72 0.94 36.72 2.15 35.78 2.15 35.78 3.17 36.72 3.17 36.72 6.89 37.83 6.89 37.83 3.17 38.86 3.17 38.86 2.15 37.83 2.15 37.83 0.94"/><path class="cls-1" d="M43.21,5A1,1,0,0,0,43,4.66a1.41,1.41,0,0,0-.47-.33,4.15,4.15,0,0,0-.74-.27,2.24,2.24,0,0,1-.51-.15,1.74,1.74,0,0,1-.3-.14.43.43,0,0,1-.14-.16.66.66,0,0,1-.06-.2.48.48,0,0,1,0-.22A.36.36,0,0,1,40.94,3a.69.69,0,0,1,.23-.09,1,1,0,0,1,.3,0,1.18,1.18,0,0,1,.39.08,2.58,2.58,0,0,1,.41.2,2.63,2.63,0,0,1,.37.29l.61-.67a1.67,1.67,0,0,0-.5-.4,2.2,2.2,0,0,0-.63-.26,2.61,2.61,0,0,0-.69-.09,2.2,2.2,0,0,0-.68.1,1.71,1.71,0,0,0-.57.29,1.33,1.33,0,0,0-.38.44,1.2,1.2,0,0,0-.14.57,1.4,1.4,0,0,0,.08.47,1.29,1.29,0,0,0,.23.39,1.67,1.67,0,0,0,.5.37,4,4,0,0,0,.81.29,3.91,3.91,0,0,1,.5.15,1.69,1.69,0,0,1,.29.13.45.45,0,0,1,.16.35A.45.45,0,0,1,42,6a.53.53,0,0,1-.21.11,1.18,1.18,0,0,1-.28,0,1.86,1.86,0,0,1-.7-.14,1.66,1.66,0,0,1-.6-.44l-.72.62a2,2,0,0,0,.81.61A2.92,2.92,0,0,0,41.47,7a2.1,2.1,0,0,0,.92-.19A1.54,1.54,0,0,0,43,6.27a1.25,1.25,0,0,0,.24-.76A1.41,1.41,0,0,0,43.21,5Z"/><path class="cls-3" d="M44.86,7.08a1.08,1.08,0,0,1-1.11-1.14,1.15,1.15,0,0,1,1.12-1.16A1.21,1.21,0,0,1,46.05,6,1.14,1.14,0,0,1,44.86,7.08Z"/><path class="cls-4" d="M22,4.52a1,1,0,0,1-1,1h0a1,1,0,0,1-1-1,1,1,0,0,1,1-1h0A1,1,0,0,1,22,4.52Z"/><path class="cls-5" d="M27.8,4.52a1,1,0,0,1-1,1h0a1,1,0,0,1-1-1,1,1,0,0,1,1-1h0A1,1,0,0,1,27.8,4.52Z"/><path class="cls-6" d="M33.75,4.54a1,1,0,0,1-1,1h0a1,1,0,0,1-1-1,1,1,0,0,1,1-1h0A1,1,0,0,1,33.75,4.54Z"/><path class="cls-7" d="M3.53,2.61a1,1,0,0,1-.61.9,1.06,1.06,0,0,1-.4.08h0a1,1,0,0,1-.39-.08.92.92,0,0,1-.56-.71,1.49,1.49,0,0,1,0-.21,1.23,1.23,0,0,1,0-.2,1,1,0,0,1,.58-.72,1,1,0,0,1,.38-.08h0a1,1,0,0,1,.38.08A1,1,0,0,1,3.53,2.61Z"/></svg>