<svg id="Layer_1" data-name="Layer 1" xmlns="http://www.w3.org/2000/svg" viewBox="0 0 46.76 7.21"><defs><style>.cls-1{fill:#fff;}.cls-2{fill:#001a33;}.cls-3{fill:#fbba36;}.cls-4{fill:#5cc8da;}.cls-5{fill:#1d8ece;}.cls-6{fill:#6859a6;}.cls-7{fill:#71bf4c;}.cls-8{fill:#e94c89;}</style></defs><path class="cls-1" d="M3.07,1.62a1,1,0,0,0-.38-.08h0a1,1,0,0,0-.38.08,1,1,0,0,0-.58.72,1.23,1.23,0,0,0,0,.2,1.49,1.49,0,0,0,0,.21.92.92,0,0,0,.56.71,1,1,0,0,0,.39.08h0a1.06,1.06,0,0,0,.4-.08,1,1,0,0,0,.61-.9A1,1,0,0,0,3.07,1.62Zm0,0a1,1,0,0,0-.38-.08h0a1,1,0,0,0-.38.08,1,1,0,0,0-.58.72,1.23,1.23,0,0,0,0,.2,1.49,1.49,0,0,0,0,.21.92.92,0,0,0,.56.71,1,1,0,0,0,.39.08h0a1.06,1.06,0,0,0,.4-.08,1,1,0,0,0,.61-.9A1,1,0,0,0,3.07,1.62Zm0,0a1,1,0,0,0-.38-.08h0a1,1,0,0,0-.38.08,1,1,0,0,0-.58.72,1.23,1.23,0,0,0,0,.2,1.49,1.49,0,0,0,0,.21.92.92,0,0,0,.56.71,1,1,0,0,0,.39.08h0a1.06,1.06,0,0,0,.4-.08,1,1,0,0,0,.61-.9A1,1,0,0,0,3.07,1.62Zm0,0a1,1,0,0,0-.38-.08h0a1,1,0,0,0-.38.08,1,1,0,0,0-.58.72,1.23,1.23,0,0,0,0,.2,1.49,1.49,0,0,0,0,.21.92.92,0,0,0,.56.71,1,1,0,0,0,.39.08h0a1.06,1.06,0,0,0,.4-.08,1,1,0,0,0,.61-.9A1,1,0,0,0,3.07,1.62Zm0,0a1,1,0,0,0-.38-.08h0a1,1,0,0,0-.38.08,1,1,0,0,0-.58.72,1.23,1.23,0,0,0,0,.2,1.49,1.49,0,0,0,0,.21.92.92,0,0,0,.56.71,1,1,0,0,0,.39.08h0a1.06,1.06,0,0,0,.4-.08,1,1,0,0,0,.61-.9A1,1,0,0,0,3.07,1.62Zm0,0a1,1,0,0,0-.38-.08h0a1,1,0,0,0-.38.08,1,1,0,0,0-.58.72,1.23,1.23,0,0,0,0,.2,1.49,1.49,0,0,0,0,.21.92.92,0,0,0,.56.71,1,1,0,0,0,.39.08h0a1.06,1.06,0,0,0,.4-.08,1,1,0,0,0,.61-.9A1,1,0,0,0,3.07,1.62Zm1.78-.11A2.07,2.07,0,0,0,4.15.8a1.91,1.91,0,0,0-1-.26H.55v6.3H1.72V4.54H3.17a1.83,1.83,0,0,0,1-.27,2.13,2.13,0,0,0,.7-.73,2,2,0,0,0,.26-1A2,2,0,0,0,4.85,1.51ZM2.67,3.89A1.3,1.3,0,0,1,1.35,2.54a1.32,1.32,0,0,1,.37-.92,1.35,1.35,0,0,1,1-.43h0a1.37,1.37,0,0,1,1,.41,1.32,1.32,0,0,1,.4,1A1.34,1.34,0,0,1,2.67,3.89Zm.4-2.27a1,1,0,0,0-.38-.08h0a1,1,0,0,0-.38.08,1,1,0,0,0-.58.72,1.23,1.23,0,0,0,0,.2,1.49,1.49,0,0,0,0,.21.92.92,0,0,0,.56.71,1,1,0,0,0,.39.08h0a1.06,1.06,0,0,0,.4-.08,1,1,0,0,0,.61-.9A1,1,0,0,0,3.07,1.62Zm0,0a1,1,0,0,0-.38-.08h0a1,1,0,0,0-.38.08,1,1,0,0,0-.58.72,1.23,1.23,0,0,0,0,.2,1.49,1.49,0,0,0,0,.21.92.92,0,0,0,.56.71,1,1,0,0,0,.39.08h0a1.06,1.06,0,0,0,.4-.08,1,1,0,0,0,.61-.9A1,1,0,0,0,3.07,1.62Zm0,0a1,1,0,0,0-.38-.08h0a1,1,0,0,0-.38.08,1,1,0,0,0-.58.72,1.23,1.23,0,0,0,0,.2,1.49,1.49,0,0,0,0,.21.92.92,0,0,0,.56.71,1,1,0,0,0,.39.08h0a1.06,1.06,0,0,0,.4-.08,1,1,0,0,0,.61-.9A1,1,0,0,0,3.07,1.62Zm0,0a1,1,0,0,0-.38-.08h0a1,1,0,0,0-.38.08,1,1,0,0,0-.58.72,1.23,1.23,0,0,0,0,.2,1.49,1.49,0,0,0,0,.21.92.92,0,0,0,.56.71,1,1,0,0,0,.39.08h0a1.06,1.06,0,0,0,.4-.08,1,1,0,0,0,.61-.9A1,1,0,0,0,3.07,1.62Zm0,0a1,1,0,0,0-.38-.08h0a1,1,0,0,0-.38.08,1,1,0,0,0-.58.72,1.23,1.23,0,0,0,0,.2,1.49,1.49,0,0,0,0,.21.92.92,0,0,0,.56.71,1,1,0,0,0,.39.08h0a1.06,1.06,0,0,0,.4-.08,1,1,0,0,0,.61-.9A1,1,0,0,0,3.07,1.62Z"/><path class="cls-1" d="M10.37,3.2a2.26,2.26,0,0,0-.88-.88A2.51,2.51,0,0,0,8.23,2,2.55,2.55,0,0,0,7,2.32a2.32,2.32,0,0,0-.88.88,2.41,2.41,0,0,0-.32,1.26,2.42,2.42,0,0,0,.32,1.27A2.32,2.32,0,0,0,7,6.61a2.55,2.55,0,0,0,1.27.32,2.51,2.51,0,0,0,1.26-.32,2.26,2.26,0,0,0,.88-.88,2.52,2.52,0,0,0,.32-1.27A2.51,2.51,0,0,0,10.37,3.2ZM8.19,5.87a1.34,1.34,0,0,1-1.36-1.4A1.39,1.39,0,0,1,8.2,3.07h0a1.38,1.38,0,0,1,1,.43,1.38,1.38,0,0,1-1,2.37Z"/><rect class="cls-1" x="11.68" y="0.18" width="1.12" height="6.66"/><polygon class="cls-1" points="18.65 2.1 17.17 2.1 15.21 4.07 15.21 0.18 14.1 0.18 14.1 6.84 15.21 6.84 15.21 5.32 15.69 4.88 17.31 6.84 18.68 6.84 16.44 4.17 18.65 2.1"/><path class="cls-1" d="M21.19,3.46h0a1,1,0,0,0-1,1,1,1,0,0,0,1,1h0a1,1,0,0,0,1-1A1,1,0,0,0,21.19,3.46Zm0,0h0a1,1,0,0,0-1,1,1,1,0,0,0,1,1h0a1,1,0,0,0,1-1A1,1,0,0,0,21.19,3.46Zm1.4-1.36v.68a2.07,2.07,0,0,0-.34-.39,1.75,1.75,0,0,0-.52-.29,2,2,0,0,0-.66-.1A2,2,0,0,0,20,2.31a2.25,2.25,0,0,0-.79.88,2.73,2.73,0,0,0-.28,1.27,2.72,2.72,0,0,0,.28,1.26,2.4,2.4,0,0,0,.77.89A1.89,1.89,0,0,0,21,6.93a2,2,0,0,0,.65-.11,2,2,0,0,0,.54-.28,1.76,1.76,0,0,0,.39-.38v.68H23.7V2.1Zm-2,3.65a1.33,1.33,0,0,1-.81-1.29,1.37,1.37,0,0,1,1.37-1.4h0a1.41,1.41,0,0,1,1,.42,1.43,1.43,0,0,1,.42,1,1.4,1.4,0,0,1-1.44,1.38,1.37,1.37,0,0,1-.54-.11Zm.57-.29a1,1,0,0,0,1-1,1,1,0,0,0-1-1h0a1,1,0,0,0-1,1,1,1,0,0,0,1,1Z"/><path class="cls-1" d="M28.39.18V2.67a1.72,1.72,0,0,0-.27-.27,2.19,2.19,0,0,0-.57-.29A1.83,1.83,0,0,0,26.89,2a2.07,2.07,0,0,0-1.13.32A2.18,2.18,0,0,0,25,3.2a2.72,2.72,0,0,0-.29,1.26A2.77,2.77,0,0,0,25,5.74a2.24,2.24,0,0,0,.8.87,2.07,2.07,0,0,0,1.13.32,2,2,0,0,0,.63-.1,1.9,1.9,0,0,0,.55-.28,1.72,1.72,0,0,0,.33-.33l0,.62H29.5V.18ZM26.93,5.86a1.33,1.33,0,0,1-.57-.13h0a1.3,1.3,0,0,1-.76-1.25,1.36,1.36,0,0,1,.79-1.26h0a1.41,1.41,0,0,1,.54-.11h0a1.41,1.41,0,0,1,1,.42,1.43,1.43,0,0,1,.42,1A1.4,1.4,0,0,1,26.93,5.86Z"/><path class="cls-1" d="M35.06,3.2a2.23,2.23,0,0,0-.87-.88A2.56,2.56,0,0,0,32.93,2a2.52,2.52,0,0,0-1.27.32,2.26,2.26,0,0,0-.88.88,2.42,2.42,0,0,0-.33,1.26,2.43,2.43,0,0,0,.33,1.27,2.26,2.26,0,0,0,.88.88,2.52,2.52,0,0,0,1.27.32,2.56,2.56,0,0,0,1.26-.32,2.23,2.23,0,0,0,.87-.88,2.42,2.42,0,0,0,.32-1.27A2.41,2.41,0,0,0,35.06,3.2Zm-.93,2,0,0v0a.62.62,0,0,1-.11.17h0a1.46,1.46,0,0,1-1.09.48,1.4,1.4,0,0,1-.77-.23.79.79,0,0,1-.17-.14,1.33,1.33,0,0,1-.42-1,1.46,1.46,0,0,1,.23-.78,1.4,1.4,0,0,1,1.14-.62h0a1.41,1.41,0,0,1,1,.42,1.19,1.19,0,0,1,.28.42s0,0,0,0h0a0,0,0,0,1,0,0,.14.14,0,0,1,0,.07,1,1,0,0,1,.1.44A1.3,1.3,0,0,1,34.13,5.15Z"/><polygon class="cls-1" points="37.99 0.89 36.88 0.89 36.88 2.1 35.95 2.1 35.95 3.12 36.88 3.12 36.88 6.84 37.99 6.84 37.99 3.12 39.02 3.12 39.02 2.1 37.99 2.1 37.99 0.89"/><path class="cls-1" d="M43.37,5a.91.91,0,0,0-.24-.37,1.58,1.58,0,0,0-.47-.34A4.79,4.79,0,0,0,41.92,4a4.13,4.13,0,0,1-.51-.15,2.2,2.2,0,0,1-.3-.14A.7.7,0,0,1,41,3.56a.66.66,0,0,1-.06-.2A.56.56,0,0,1,41,3.13.5.5,0,0,1,41.1,3a.7.7,0,0,1,.23-.1,1.39,1.39,0,0,1,.3,0,1.18,1.18,0,0,1,.39.08,2.22,2.22,0,0,1,.41.2,1.76,1.76,0,0,1,.37.29l.62-.68a2.2,2.2,0,0,0-.5-.4,2.85,2.85,0,0,0-.63-.25,2.74,2.74,0,0,0-.7-.09,2.2,2.2,0,0,0-.68.1,1.73,1.73,0,0,0-.56.28,1.67,1.67,0,0,0-.39.45,1.2,1.2,0,0,0-.14.57,1.45,1.45,0,0,0,.08.47,1.29,1.29,0,0,0,.23.39,1.86,1.86,0,0,0,.5.37,4,4,0,0,0,.81.29,3.46,3.46,0,0,1,.5.15,1.15,1.15,0,0,1,.29.13.4.4,0,0,1,.16.34.46.46,0,0,1,0,.21.46.46,0,0,1-.14.17A.7.7,0,0,1,42,6a1.14,1.14,0,0,1-.28,0,1.85,1.85,0,0,1-.7-.13,1.66,1.66,0,0,1-.6-.44l-.72.62a2.07,2.07,0,0,0,.81.61,2.92,2.92,0,0,0,1.13.21,2.15,2.15,0,0,0,.93-.19,1.58,1.58,0,0,0,.64-.52,1.27,1.27,0,0,0,.24-.76A1.51,1.51,0,0,0,43.37,5Z"/><path class="cls-2" d="M3.7,2.56a1,1,0,0,1-.61.9H2.28a.92.92,0,0,1-.56-.71V2.34a1,1,0,0,1,.58-.72h.77A1,1,0,0,1,3.7,2.56Z"/><path class="cls-2" d="M9.23,4.49a1,1,0,0,1-1,1h0a1,1,0,0,1-1-1,1,1,0,0,1,1-1h0A1,1,0,0,1,9.23,4.49Z"/><path class="cls-2" d="M22.2,4.47a1,1,0,0,1-1,1h0a1,1,0,0,1-1-1,1,1,0,0,1,1-1h0A1,1,0,0,1,22.2,4.47Z"/><path class="cls-2" d="M28,4.47a1,1,0,0,1-1,1h0a1,1,0,0,1-1-1,1,1,0,0,1,1-1h0A1,1,0,0,1,28,4.47Z"/><path class="cls-2" d="M33.92,4.49a1,1,0,0,1-1,1h0a1,1,0,0,1-1-1,1,1,0,0,1,1-1h0A1,1,0,0,1,33.92,4.49Z"/><path class="cls-3" d="M9.23,4.49a1,1,0,0,1-1,1h0a1,1,0,0,1-1-1,1,1,0,0,1,1-1h0A1,1,0,0,1,9.23,4.49Z"/><path class="cls-4" d="M22.2,4.47a1,1,0,0,1-1,1h0a1,1,0,0,1-1-1,1,1,0,0,1,1-1h0A1,1,0,0,1,22.2,4.47Z"/><path class="cls-5" d="M28,4.47a1,1,0,0,1-1,1h0a1,1,0,0,1-1-1,1,1,0,0,1,1-1h0A1,1,0,0,1,28,4.47Z"/><path class="cls-6" d="M33.92,4.49a1,1,0,0,1-1,1h0a1,1,0,0,1-1-1,1,1,0,0,1,1-1h0A1,1,0,0,1,33.92,4.49Z"/><path class="cls-7" d="M45,7a1.09,1.09,0,0,1-1.11-1.14A1.15,1.15,0,0,1,45,4.73,1.2,1.2,0,0,1,46.21,5.9,1.14,1.14,0,0,1,45,7Z"/><path class="cls-8" d="M3.7,2.56a1,1,0,0,1-.61.9,1.06,1.06,0,0,1-.4.08h0a1,1,0,0,1-.39-.08.92.92,0,0,1-.56-.71,1.49,1.49,0,0,1,0-.21,1.23,1.23,0,0,1,0-.2,1,1,0,0,1,.58-.72,1,1,0,0,1,.38-.08h0a1,1,0,0,1,.38.08A1,1,0,0,1,3.7,2.56Z"/></svg>