<?xml version="1.0" encoding="utf-8"?>
<!-- Generator: Adobe Illustrator 25.4.1, SVG Export Plug-In . SVG Version: 6.00 Build 0)  -->
<svg version="1.1" id="Layer_1" xmlns="http://www.w3.org/2000/svg" xmlns:xlink="http://www.w3.org/1999/xlink" x="0px" y="0px"
	 viewBox="0 0 157 38" enable-background="new 0 0 157 38" xml:space="preserve">
<g>
	<g>
		<polygon fill="#FFFFFF" points="61.393,15.748 74.797,6.891 74.797,0.373 56.564,12.528 56.564,18.938 56.564,19.046 
			59.738,21.144 57.394,22.706 57.394,22.706 57.394,22.706 57.394,29.117 57.394,29.224 70.11,37.627 70.095,31.174 62.223,25.926 
			64.599,24.356 69.281,27.449 69.266,21.272 75.627,17.07 75.627,10.551 64.613,17.894 		"/>
	</g>
	<g>
		<path fill="#FFFFFF" d="M0.168,7.756h4.101v17.633h5.975v3.91H0.168V7.756z"/>
		<path fill="#FFFFFF" d="M19.418,12.955c1.503,0,2.917,0.376,4.24,1.128c1.323,0.752,2.355,1.772,3.098,3.061
			c0.742,1.289,1.113,2.68,1.113,4.174c0,1.504-0.373,2.91-1.12,4.218c-0.747,1.308-1.765,2.331-3.054,3.068
			c-1.289,0.737-2.709,1.106-4.262,1.106c-2.285,0-4.235-0.813-5.851-2.439c-1.616-1.626-2.424-3.6-2.424-5.924
			c0-2.49,0.913-4.564,2.739-6.224C15.498,13.678,17.339,12.955,19.418,12.955z M19.484,16.719c-1.242,0-2.276,0.432-3.103,1.296
			c-0.826,0.864-1.239,1.97-1.239,3.317c0,1.386,0.408,2.509,1.225,3.368c0.817,0.859,1.851,1.289,3.103,1.289
			c1.252,0,2.293-0.434,3.125-1.303c0.831-0.869,1.247-1.987,1.247-3.354c0-1.367-0.408-2.477-1.225-3.332
			C21.8,17.146,20.756,16.719,19.484,16.719z"/>
		<path fill="#FFFFFF" d="M41.92,13.365h3.984v13.65c0,2.695-0.542,4.677-1.626,5.946c-1.455,1.718-3.647,2.578-6.576,2.578
			c-1.562,0-2.876-0.195-3.94-0.586c-1.064-0.391-1.963-0.964-2.695-1.721c-0.732-0.757-1.274-1.677-1.626-2.761h4.408
			c0.39,0.449,0.893,0.788,1.508,1.018s1.342,0.344,2.182,0.344c1.074,0,1.938-0.166,2.592-0.498
			c0.654-0.332,1.115-0.762,1.384-1.289c0.269-0.527,0.403-1.435,0.403-2.724c-0.703,0.703-1.44,1.208-2.211,1.516
			c-0.771,0.308-1.645,0.461-2.622,0.461c-2.138,0-3.945-0.771-5.419-2.314c-1.474-1.543-2.211-3.495-2.211-5.858
			c0-2.529,0.781-4.56,2.343-6.093c1.416-1.386,3.105-2.08,5.067-2.08c0.918,0,1.784,0.168,2.6,0.505
			c0.815,0.337,1.633,0.891,2.453,1.662V13.365z M37.775,16.69c-1.26,0-2.299,0.423-3.119,1.267c-0.82,0.845-1.23,1.906-1.23,3.185
			c0,1.328,0.42,2.417,1.26,3.266c0.84,0.849,1.894,1.274,3.163,1.274c1.24,0,2.263-0.415,3.068-1.245
			c0.806-0.83,1.208-1.919,1.208-3.266c0-1.328-0.405-2.407-1.216-3.237C40.099,17.105,39.054,16.69,37.775,16.69z"/>
		<rect x="48.517" y="13.365" fill="#FFFFFF" width="3.998" height="15.934"/>
		<path fill="#FFFFFF" d="M79.787,7.756h4.101v17.633h5.975v3.91H79.787V7.756z"/>
		<path fill="#FFFFFF" d="M99.037,12.955c1.503,0,2.916,0.376,4.24,1.128c1.323,0.752,2.356,1.772,3.098,3.061
			c0.742,1.289,1.113,2.68,1.113,4.174c0,1.504-0.373,2.91-1.12,4.218c-0.747,1.308-1.765,2.331-3.054,3.068
			c-1.289,0.737-2.709,1.106-4.262,1.106c-2.285,0-4.235-0.813-5.851-2.439c-1.616-1.626-2.424-3.6-2.424-5.924
			c0-2.49,0.913-4.564,2.739-6.224C95.117,13.678,96.958,12.955,99.037,12.955z M99.103,16.719c-1.242,0-2.276,0.432-3.103,1.296
			c-0.827,0.864-1.24,1.97-1.24,3.317c0,1.386,0.408,2.509,1.225,3.368c0.816,0.859,1.851,1.289,3.103,1.289
			c1.252,0,2.293-0.434,3.125-1.303c0.831-0.869,1.247-1.987,1.247-3.354c0-1.367-0.409-2.477-1.225-3.332
			C101.419,17.146,100.375,16.719,99.103,16.719z"/>
		<path fill="#FFFFFF" d="M121.539,13.365h3.984v13.65c0,2.695-0.542,4.677-1.626,5.946c-1.455,1.718-3.647,2.578-6.576,2.578
			c-1.562,0-2.875-0.195-3.94-0.586c-1.064-0.391-1.962-0.964-2.695-1.721c-0.732-0.757-1.274-1.677-1.626-2.761h4.408
			c0.391,0.449,0.893,0.788,1.508,1.018s1.342,0.344,2.182,0.344c1.074,0,1.938-0.166,2.592-0.498
			c0.654-0.332,1.115-0.762,1.384-1.289c0.269-0.527,0.403-1.435,0.403-2.724c-0.703,0.703-1.44,1.208-2.211,1.516
			c-0.771,0.308-1.645,0.461-2.622,0.461c-2.138,0-3.945-0.771-5.419-2.314c-1.474-1.543-2.211-3.495-2.211-5.858
			c0-2.529,0.781-4.56,2.343-6.093c1.416-1.386,3.105-2.08,5.067-2.08c0.918,0,1.784,0.168,2.6,0.505
			c0.815,0.337,1.633,0.891,2.453,1.662V13.365z M117.394,16.69c-1.259,0-2.299,0.423-3.119,1.267
			c-0.82,0.845-1.23,1.906-1.23,3.185c0,1.328,0.42,2.417,1.26,3.266c0.84,0.849,1.894,1.274,3.163,1.274
			c1.24,0,2.263-0.415,3.068-1.245c0.806-0.83,1.208-1.919,1.208-3.266c0-1.328-0.405-2.407-1.216-3.237
			C119.718,17.105,118.673,16.69,117.394,16.69z"/>
		<path fill="#FFFFFF" d="M156.539,15.591l-2.475,2.475c-1.006-0.996-1.919-1.494-2.739-1.494c-0.449,0-0.801,0.095-1.054,0.286
			c-0.254,0.19-0.381,0.427-0.381,0.71c0,0.215,0.081,0.412,0.242,0.593c0.161,0.181,0.559,0.427,1.194,0.74l1.465,0.732
			c1.543,0.762,2.602,1.538,3.178,2.329c0.576,0.791,0.864,1.718,0.864,2.783c0,1.416-0.52,2.597-1.56,3.544
			c-1.04,0.947-2.434,1.421-4.181,1.421c-2.324,0-4.179-0.908-5.565-2.724l2.46-2.68c0.469,0.547,1.018,0.989,1.648,1.325
			c0.63,0.337,1.189,0.505,1.677,0.505c0.527,0,0.952-0.127,1.274-0.381c0.322-0.254,0.483-0.547,0.483-0.879
			c0-0.615-0.581-1.216-1.743-1.801l-1.347-0.674c-2.578-1.299-3.866-2.924-3.866-4.877c0-1.26,0.486-2.336,1.457-3.229
			c0.972-0.893,2.214-1.34,3.727-1.34c1.035,0,2.009,0.227,2.922,0.681C155.131,14.09,155.905,14.742,156.539,15.591z"/>
		<g>
			<polygon fill="#FDB816" points="74.797,0.373 74.797,6.891 56.564,18.939 56.564,12.529 			"/>
			<polygon fill="#EE5226" points="75.627,10.551 75.627,17.069 57.394,29.117 57.394,22.707 			"/>
			<polygon opacity="0.75" fill="#3697D3" points="57.394,22.706 57.394,29.224 70.11,37.627 70.095,31.174 			"/>
			<polygon fill="#95CA5C" points="56.564,12.529 56.564,19.047 69.281,27.449 69.266,20.996 			"/>
		</g>
		<path fill="#FFFFFF" d="M143.611,17.545h-4.859v-4.156c-0.863-0.289-1.761-0.434-2.693-0.434c-2.08,0-3.92,0.723-5.521,2.168
			c-1.826,1.66-2.739,3.735-2.739,6.224c0,2.324,0.807,4.298,2.424,5.924c1.616,1.626,3.566,2.439,5.851,2.439
			c1.552,0,2.973-0.369,4.262-1.106c1.289-0.737,2.307-1.76,3.054-3.068s1.12-2.714,1.12-4.218
			C144.509,19.977,144.208,18.72,143.611,17.545z M139.235,24.686c-0.831,0.869-1.873,1.303-3.125,1.303
			c-1.252,0-2.287-0.43-3.103-1.289c-0.817-0.859-1.225-1.982-1.225-3.368c0-1.347,0.413-2.453,1.24-3.317
			c0.826-0.864,1.86-1.296,3.103-1.296c1.271,0,2.315,0.427,3.132,1.282c0.816,0.855,1.225,1.965,1.225,3.332
			C140.482,22.699,140.066,23.817,139.235,24.686z"/>
		<path fill="#FFFFFF" d="M52.661,10.805c-0.694-1.206-1.66-2.16-2.898-2.864c-0.47-0.267-0.953-0.483-1.447-0.649v3.888h4.546
			C52.798,11.055,52.732,10.929,52.661,10.805z"/>
	</g>
</g>
</svg>
